<?xml version="1.0" encoding="utf-8"?>
<!-- Generator: Adobe Illustrator 16.0.0, SVG Export Plug-In . SVG Version: 6.00 Build 0)  -->
<!DOCTYPE svg PUBLIC "-//W3C//DTD SVG 1.1//EN" "http://www.w3.org/Graphics/SVG/1.1/DTD/svg11.dtd">
<svg version="1.1" id="Layer_1" xmlns="http://www.w3.org/2000/svg" xmlns:xlink="http://www.w3.org/1999/xlink" x="0px" y="0px"
	 width="174.5px" height="174.5px" viewBox="0 0 174.5 174.5" enable-background="new 0 0 174.5 174.5" xml:space="preserve">
<g>
	<path fill="none" d="M-221.675-1.395c1.042,0.521,2.083,0.868,3.034,1.116l0.319-0.398c-0.565-0.194-1.144-0.428-1.724-0.718
		c-3.688-1.845-5.8-4.967-6.314-9.288h-1.629C-227.474-6.361-225.363-3.24-221.675-1.395z"/>
	<path fill="none" d="M-224.742-14.996h17.875l0.019-0.023h-0.013l4.37-5.46h0.011l4.386-5.483h-13.654
		C-213.004-25.954-223.482-25.562-224.742-14.996z"/>
	<polygon fill="none" points="-207.53,-5.223 -203.163,-10.683 -204.791,-10.683 -209.159,-5.223 -209.162,-5.223 -210.4,-3.675 
		-210.317,-3.675 -213.487,0.289 -211.858,0.289 -208.688,-3.675 -208.771,-3.675 -207.533,-5.223 	"/>
	<polygon fill="none" points="-179.364,-30.274 -158.364,-56.524 -164.872,-56.524 -185.871,-30.274 	"/>
	<polygon fill="none" points="-195.329,-20.479 -195.31,-20.479 -190.943,-25.938 -190.961,-25.938 -190.943,-25.961 
		-192.572,-25.961 -192.59,-25.938 -192.572,-25.938 -196.939,-20.479 -196.958,-20.479 -201.345,-14.996 -199.716,-14.996 	"/>
	<polygon fill="none" points="-166.494,-56.524 -168.123,-56.524 -189.122,-30.274 -187.493,-30.274 	"/>
	<polygon fill="none" points="-189.339,-25.938 -189.321,-25.938 -193.688,-20.479 -193.707,-20.479 -198.094,-14.996 
		-191.686,-14.996 -191.587,-14.996 -182.814,-25.961 -189.321,-25.961 	"/>
	<path fill="none" d="M-218.424-1.395c0.166,0.083,0.331,0.151,0.496,0.225l7.611-9.513h-14.421
		C-224.223-6.361-222.112-3.24-218.424-1.395z"/>
	<path fill="none" d="M-143.495-25.938h0.019l-4.367,5.46h-0.021l-4.386,5.483h6.604h7.051c1.258-0.009,11.746-0.394,13.002-10.967
		h-17.883L-143.495-25.938z"/>
	<polygon fill="none" points="-198.291,0.289 -196.662,0.289 -187.885,-10.683 -189.418,-10.683 -189.515,-10.683 	"/>
	<polygon fill="none" points="-149.467,-20.479 -145.1,-25.938 -145.117,-25.938 -145.1,-25.961 -146.729,-25.961 -146.746,-25.938 
		-146.729,-25.938 -151.096,-20.479 -151.115,-20.479 -155.502,-14.996 -155.404,-14.996 -153.873,-14.996 -149.486,-20.479 	"/>
	<polygon fill="none" points="-167.629,0.289 -166.1,0.289 -157.322,-10.683 -158.855,-10.683 -158.951,-10.683 -167.729,0.289 	"/>
	<polygon fill="none" points="-195.04,0.289 -188.532,0.289 -179.755,-10.683 -186.264,-10.683 	"/>
	<polygon fill="none" points="-171.078,4.601 -171.18,4.601 -179.952,15.567 -178.323,15.567 -169.551,4.601 	"/>
	<polygon fill="none" points="-164.475,-10.683 -170.902,-10.683 -175.27,-5.223 -175.352,-5.223 -176.588,-3.675 -176.516,-3.675 
		-179.684,0.289 -173.25,0.289 	"/>
	<polygon fill="none" points="-178.21,-3.675 -176.973,-5.223 -176.893,-5.223 -172.525,-10.683 -174.152,-10.683 -174.154,-10.683 
		-178.521,-5.223 -178.602,-5.223 -179.839,-3.675 -179.766,-3.675 -182.935,0.289 -181.307,0.289 -178.137,-3.675 	"/>
	<path fill="none" d="M-153.876,4.601h-7.444h-6.607l-8.771,10.967h35.825C-142.188,4.731-153.371,4.601-153.876,4.601z"/>
	<polygon fill="none" points="-198.49,4.601 -207.264,15.567 -200.756,15.567 -191.982,4.601 	"/>
	<path fill="none" d="M-213.37-25.961h-1.629c-1.256,0.009-11.734,0.4-12.994,10.967h1.629
		C-225.104-25.562-214.626-25.954-213.37-25.961z"/>
	<path fill="none" d="M-223.603,2.463c-3.525-1.764-7.594-5.315-8.566-12.189c-3.696,1.328-7.982,4.516-7.982,12.171
		c0,8.517,5.417,11.501,9.294,12.55l9.327-11.66C-222.21,3.088-222.903,2.812-223.603,2.463z"/>
	<path fill="none" d="M-241.773,2.444c0-8.767,5.623-11.676,9.54-12.642c-0.013-0.105-0.031-0.205-0.042-0.312
		c-3.739,0.552-11.126,2.905-11.126,12.954c0,11.003,9.052,12.782,12.13,13.068l0.164-0.204
		C-234.915,14.609-241.773,12.023-241.773,2.444z"/>
	<polygon fill="none" points="-201.741,4.601 -210.515,15.567 -208.886,15.567 -200.112,4.601 	"/>
	<polygon fill="none" points="-195.138,-10.683 -201.54,-10.683 -205.908,-5.223 -205.911,-5.223 -207.149,-3.675 -207.066,-3.675 
		-210.236,0.289 -203.814,0.289 -195.038,-10.683 	"/>
	<path d="M-120.062-30.274h-1.621c1.189,0,2.156,0.965,2.156,2.156c0,8.996-4.805,13.285-8.834,15.3
		c-4.224,2.11-8.42,2.136-8.604,2.136h1.621l0,0c0.186,0,4.382-0.025,8.605-2.136c4.029-2.015,8.832-6.304,8.832-15.3
		C-117.906-29.31-118.871-30.274-120.062-30.274z"/>
	<path d="M-150.625,0.289h-1.622c6.03,0,17.438,3.646,17.438,17.436c0,1.191-0.967,2.156-2.156,2.156h1.621
		c1.191,0,2.156-0.965,2.156-2.156C-133.188,3.934-144.596,0.289-150.625,0.289z"/>
	<path d="M-153.876,0.289h-3.993h-6.607l8.775-10.972h6.604h10.502c0.002,0,0.002,0,0.002,0c0.185,0,4.381-0.025,8.604-2.136
		c4.029-2.015,8.833-6.304,8.833-15.3c0-1.191-0.966-2.156-2.155-2.156h-16.715l21.646-27.057c0.744-0.931,0.594-2.286-0.338-3.032
		c-0.629-0.505-1.455-0.588-2.156-0.303c0.188,0.076,0.369,0.17,0.535,0.303c0.931,0.746,1.08,2.102,0.337,3.032l-21.646,27.057
		h-1.629l21.646-27.057c0.743-0.931,0.594-2.286-0.337-3.032c-0.928-0.743-2.285-0.592-3.03,0.337l-23.804,29.752h-5.075
		c-1.19,0-2.156,0.965-2.156,2.156s0.966,2.156,2.156,2.156h1.628l-8.773,10.967h-6.508l0.02-0.023h0.062l4.367-5.46h-0.062
		l29.481-36.853c0.744-0.931,0.595-2.286-0.337-3.032c-0.631-0.505-1.457-0.588-2.157-0.303c0.188,0.076,0.37,0.17,0.535,0.303
		c0.931,0.746,1.081,2.102,0.337,3.032l-29.482,36.853h0.064l-4.369,5.46h-0.062l-0.02,0.023h-1.547h-0.082l0.02-0.023h0.062
		l4.369-5.46h-0.064l29.482-36.853c0.744-0.931,0.594-2.286-0.337-3.032c-0.929-0.743-2.287-0.592-3.03,0.337l-36.025,45.031h-6.507
		l33.871-42.338c0.518-0.648,0.619-1.535,0.26-2.282c-0.358-0.746-1.114-1.222-1.942-1.222h-1.622c0.829,0,1.585,0.476,1.943,1.222
		c0.358,0.747,0.258,1.634-0.26,2.282l-33.872,42.338h-1.531h-0.098l33.872-42.338c0.518-0.648,0.618-1.535,0.26-2.282
		c-0.358-0.746-1.114-1.222-1.943-1.222h-15.282c-0.655,0-1.274,0.297-1.685,0.809l-23.801,29.754h-20.354
		c-5.722,0-16.263,3.3-17.329,15.416c-6.243,0.743-15.387,4.944-15.387,17.303c0,13.79,11.405,17.437,17.435,17.437
		c0.655,0,1.275-0.297,1.684-0.81l8.331-10.413h0.011l3.365-4.205c0.666,0.084,1.192,0.119,1.521,0.135l-3.257,4.07h-0.012
		l-8.33,10.413c-0.322,0.403-0.776,0.666-1.273,0.763c0.422,0.031,0.828,0.047,1.211,0.047c0.655,0,1.275-0.297,1.684-0.81
		l8.33-10.413H-217l3.247-4.058h0.386h1.622h4.483l-9.42,11.774c-0.518,0.648-0.619,1.535-0.26,2.282
		c0.359,0.746,1.115,1.222,1.943,1.222h15.283c0.655,0,1.274-0.297,1.683-0.809l8.33-10.413h0.003l3.245-4.058h1.629l-3.245,4.058
		h-0.003l-8.33,10.413c-0.409,0.512-1.028,0.809-1.683,0.809h1.622c0.655,0,1.274-0.297,1.683-0.809l8.33-10.413h0.003l3.245-4.058
		h6.506l-9.421,11.775c-0.518,0.647-0.619,1.534-0.26,2.281c0.359,0.746,1.115,1.223,1.943,1.223h45.843
		c1.19,0,2.156-0.965,2.156-2.156C-136.438,3.934-147.846,0.289-153.876,0.289z M-155.404-14.996h-0.098l4.387-5.483h0.02
		l4.367-5.46h-0.018l0.018-0.023h1.629l-0.018,0.023h0.018l-4.366,5.46h-0.021l-4.387,5.483H-155.404z M-125.594-25.961
		c-1.256,10.573-11.744,10.958-13.002,10.967h-7.051h-6.604l4.386-5.483h0.021l4.367-5.46h-0.019l0.019-0.023L-125.594-25.961
		L-125.594-25.961z M-158.951-10.683h0.096h1.533L-166.1,0.289h-1.528h-0.101L-158.951-10.683z M-179.755-10.683l-8.776,10.972
		h-6.508l8.776-10.972H-179.755z M-187.885-10.683l-8.777,10.972h-1.629l8.776-10.972h0.096H-187.885z M-191.587-14.996h-0.099
		h-6.407l4.387-5.483h0.019l4.367-5.46h-0.019l0.018-0.023h6.507L-191.587-14.996z M-208.688-3.675l-3.17,3.964h-1.629l3.17-3.964
		h-0.083l1.238-1.548h0.003l4.367-5.46h1.629l-4.367,5.46h-0.003l-1.238,1.548H-208.688z M-217.928-1.169
		c-0.166-0.073-0.33-0.142-0.496-0.225c-3.688-1.845-5.799-4.967-6.314-9.288h14.421L-217.928-1.169z M-220.046-1.395
		c0.581,0.29,1.159,0.521,1.724,0.718l-0.319,0.398c-0.951-0.248-1.992-0.597-3.034-1.116c-3.688-1.845-5.799-4.967-6.314-9.288
		h1.629C-225.846-6.361-223.734-3.24-220.046-1.395z M-196.958-20.479h0.019l4.367-5.46h-0.018l0.018-0.023h1.629l-0.018,0.023
		h0.018l-4.367,5.46h-0.019l-4.387,5.483h-1.629L-196.958-20.479z M-158.364-56.524l-21,26.25h-6.507l20.999-26.25H-158.364z
		 M-168.123-56.524h1.629l-20.999,26.25h-1.629L-168.123-56.524z M-198.095-25.961l-4.386,5.483h-0.011l-4.37,5.46h0.013
		l-0.019,0.023h-17.874c1.26-10.566,11.738-10.958,12.994-10.967L-198.095-25.961L-198.095-25.961z M-214.999-25.961h1.629
		c-1.256,0.009-11.734,0.4-12.994,10.967h-1.629C-226.733-25.562-216.255-25.954-214.999-25.961z M-231.272,15.513
		c-3.079-0.286-12.13-2.065-12.13-13.068c0-10.049,7.388-12.402,11.126-12.954c0.011,0.107,0.03,0.207,0.042,0.312
		c-3.917,0.966-9.54,3.875-9.54,12.642c0,9.579,6.858,12.165,10.665,12.864L-231.272,15.513z M-230.857,14.994
		c-3.878-1.049-9.294-4.033-9.294-12.55c0-7.655,4.286-10.843,7.982-12.171c0.972,6.874,5.041,10.427,8.566,12.189
		c0.701,0.35,1.394,0.625,2.074,0.869L-230.857,14.994z M-210.236,0.289l3.17-3.964h-0.083l1.238-1.548h0.003l4.367-5.46h6.403h0.1
		l-8.777,10.972H-210.236z M-210.515,15.567l8.773-10.967h1.629l-8.773,10.967H-210.515z M-200.756,15.567h-6.508l8.773-10.967
		h6.508L-200.756,15.567z M-182.935,0.289l3.169-3.964h-0.073l1.237-1.548h0.08l4.367-5.46h0.002h1.627l-4.367,5.46h-0.08
		l-1.237,1.548h0.073l-3.168,3.964H-182.935z M-179.684,0.289l3.168-3.964h-0.072l1.236-1.548h0.08l4.369-5.46h6.428l-8.775,10.972
		H-179.684z M-179.952,15.567L-171.18,4.6h0.102h1.527l-8.771,10.967H-179.952z M-176.701,15.567l8.773-10.967h6.606h7.444
		c0.505,0,11.688,0.131,13,10.967H-176.701z"/>
</g>
<g>
	<path d="M-225.487,56.537c-0.261-0.689-0.506-1.367-0.736-2.035c-0.23-0.666-0.468-1.346-0.713-2.035h-7.222l-1.449,4.07h-2.323
		c0.613-1.687,1.188-3.246,1.725-4.681c0.536-1.435,1.062-2.794,1.575-4.082c0.513-1.288,1.023-2.519,1.53-3.69
		c0.506-1.174,1.035-2.336,1.587-3.485h2.047c0.552,1.149,1.081,2.312,1.587,3.485c0.506,1.172,1.016,2.402,1.53,3.69
		c0.513,1.288,1.039,2.647,1.575,4.082s1.112,2.994,1.725,4.681H-225.487z M-227.58,50.627c-0.491-1.334-0.978-2.625-1.46-3.875
		c-0.483-1.25-0.986-2.451-1.507-3.601c-0.537,1.149-1.046,2.351-1.529,3.601s-0.962,2.541-1.438,3.875H-227.58z"/>
	<path d="M-218.586,56.768c-1.319-0.031-2.254-0.314-2.806-0.852c-0.552-0.537-0.828-1.373-0.828-2.508V39.056l2.139-0.367v14.375
		c0,0.353,0.03,0.644,0.092,0.874c0.061,0.229,0.161,0.414,0.299,0.552c0.138,0.138,0.322,0.241,0.552,0.312
		c0.23,0.067,0.514,0.125,0.851,0.172L-218.586,56.768z"/>
	<path d="M-215.045,44.578h4.531v1.793h-4.531v5.521c0,0.599,0.046,1.093,0.138,1.483c0.092,0.392,0.229,0.697,0.414,0.92
		s0.414,0.379,0.69,0.472c0.276,0.093,0.598,0.139,0.966,0.139c0.644,0,1.162-0.073,1.553-0.219
		c0.391-0.146,0.663-0.249,0.816-0.312l0.414,1.771c-0.215,0.107-0.59,0.241-1.127,0.402c-0.537,0.16-1.15,0.24-1.84,0.24
		c-0.813,0-1.484-0.104-2.013-0.311c-0.529-0.207-0.955-0.518-1.276-0.932c-0.322-0.414-0.548-0.924-0.679-1.529
		c-0.13-0.605-0.195-1.307-0.195-2.104V41.241l2.139-0.368V44.578L-215.045,44.578z"/>
	<path d="M-204.719,56.537V40.599h10.074v2.462h-7.176v4.07h6.371v2.461h-6.371v6.945H-204.719z"/>
	<path d="M-182.731,50.51c0,0.951-0.138,1.818-0.414,2.601c-0.276,0.783-0.667,1.449-1.173,2.001
		c-0.506,0.553-1.116,0.98-1.829,1.288s-1.499,0.46-2.357,0.46c-0.859,0-1.641-0.152-2.346-0.46s-1.311-0.735-1.817-1.288
		c-0.506-0.552-0.901-1.219-1.185-2.001c-0.284-0.782-0.425-1.647-0.425-2.601c0-0.949,0.142-1.812,0.425-2.586
		c0.283-0.775,0.682-1.438,1.196-1.989c0.514-0.554,1.123-0.978,1.829-1.277c0.705-0.299,1.479-0.448,2.323-0.448
		c0.844,0,1.622,0.149,2.334,0.448c0.713,0.3,1.323,0.726,1.829,1.277c0.506,0.552,0.9,1.215,1.185,1.989
		C-182.873,48.698-182.731,49.561-182.731,50.51z M-185.583,50.51c0-1.194-0.257-2.143-0.771-2.84
		c-0.514-0.697-1.23-1.047-2.15-1.047s-1.637,0.35-2.15,1.047c-0.514,0.697-0.771,1.646-0.771,2.84c0,1.213,0.256,2.171,0.771,2.875
		c0.514,0.707,1.23,1.06,2.15,1.06s1.637-0.353,2.15-1.06C-185.84,52.681-185.583,51.723-185.583,50.51z"/>
	<path d="M-171.139,56.168c-0.537,0.139-1.235,0.28-2.094,0.427c-0.858,0.146-1.802,0.219-2.828,0.219
		c-0.967,0-1.775-0.14-2.427-0.414c-0.651-0.276-1.173-0.659-1.563-1.149c-0.39-0.49-0.672-1.078-0.84-1.761
		c-0.168-0.682-0.252-1.43-0.252-2.241v-6.74h2.783v6.304c0,1.287,0.188,2.208,0.562,2.76c0.374,0.552,1.031,0.828,1.966,0.828
		c0.337,0,0.694-0.017,1.069-0.046c0.375-0.031,0.656-0.069,0.84-0.115v-9.73h2.783L-171.139,56.168L-171.139,56.168z"/>
	<path d="M-168.747,44.899c0.537-0.153,1.233-0.299,2.093-0.438c0.859-0.138,1.809-0.207,2.852-0.207
		c0.981,0,1.803,0.136,2.462,0.402c0.659,0.27,1.185,0.645,1.575,1.127c0.392,0.483,0.668,1.066,0.828,1.748
		c0.162,0.684,0.241,1.432,0.241,2.243v6.763h-2.782v-6.326c0-0.644-0.043-1.19-0.127-1.645c-0.084-0.452-0.223-0.82-0.414-1.104
		c-0.191-0.284-0.453-0.491-0.781-0.621c-0.329-0.131-0.732-0.195-1.209-0.195c-0.353,0-0.721,0.021-1.104,0.068
		c-0.383,0.045-0.667,0.084-0.851,0.115v9.705h-2.783V44.899z"/>
	<path d="M-146.277,56.168c-0.552,0.17-1.246,0.322-2.082,0.461c-0.836,0.139-1.713,0.207-2.633,0.207
		c-0.951,0-1.802-0.146-2.553-0.438s-1.393-0.709-1.92-1.254c-0.529-0.544-0.936-1.203-1.219-1.979
		c-0.283-0.774-0.426-1.645-0.426-2.61c0-0.95,0.119-1.812,0.356-2.587c0.237-0.775,0.586-1.438,1.046-1.989
		c0.46-0.553,1.02-0.978,1.68-1.276c0.658-0.3,1.418-0.449,2.276-0.449c0.583,0,1.096,0.069,1.541,0.207
		c0.444,0.14,0.828,0.293,1.149,0.461V39.15l2.783-0.46v17.478H-146.277z M-154.258,50.488c0,1.227,0.291,2.188,0.873,2.887
		c0.584,0.697,1.389,1.047,2.416,1.047c0.443,0,0.824-0.02,1.138-0.059c0.313-0.038,0.571-0.08,0.771-0.126v-6.899
		c-0.244-0.168-0.57-0.325-0.978-0.473c-0.405-0.146-0.839-0.218-1.299-0.218c-1.013,0-1.752,0.345-2.22,1.034
		C-154.023,48.373-154.258,49.308-154.258,50.488z"/>
	<path d="M-137.031,47.015c-0.23-0.076-0.548-0.156-0.955-0.241c-0.406-0.084-0.878-0.126-1.414-0.126
		c-0.308,0-0.633,0.03-0.979,0.092c-0.346,0.062-0.586,0.115-0.725,0.161v9.637h-2.783V45.084c0.537-0.199,1.209-0.388,2.014-0.563
		c0.805-0.177,1.698-0.265,2.68-0.265c0.184,0,0.397,0.012,0.643,0.035c0.246,0.021,0.492,0.053,0.736,0.092
		c0.246,0.037,0.483,0.084,0.713,0.138s0.414,0.104,0.553,0.149L-137.031,47.015z"/>
	<path d="M-125.531,44.508c-1.24,4.568-2.679,8.709-4.316,12.42c-0.307,0.689-0.621,1.279-0.943,1.771
		c-0.323,0.49-0.684,0.896-1.083,1.22c-0.399,0.322-0.845,0.556-1.335,0.7c-0.492,0.146-1.059,0.22-1.704,0.22
		c-0.431,0-0.856-0.047-1.278-0.139c-0.422-0.092-0.74-0.191-0.955-0.299l0.506-2.23c0.555,0.215,1.102,0.321,1.641,0.321
		c0.725,0,1.29-0.173,1.697-0.518c0.408-0.345,0.767-0.878,1.074-1.599c-0.877-1.688-1.721-3.526-2.528-5.521
		s-1.529-4.108-2.16-6.349h2.967c0.154,0.645,0.343,1.342,0.565,2.094c0.224,0.751,0.467,1.514,0.728,2.288
		c0.263,0.774,0.539,1.545,0.831,2.312c0.292,0.768,0.585,1.479,0.877,2.139c0.489-1.363,0.946-2.816,1.374-4.357
		c0.427-1.541,0.815-3.032,1.167-4.475h2.877v0.002H-125.531z"/>
</g>
<g enable-background="new    ">
	<path d="M26.155,161.191h-3.856v-6.225h-7.623v6.225h-3.879v-15.381h3.879v6.18h7.623v-6.18h3.856V161.191z"/>
	<path d="M34.59,161.395c-3.18,0-5.886-1.962-5.886-5.345c0-3.248,2.639-5.458,5.909-5.458c2.368,0,5.796,1.33,5.796,5.436
		C40.409,160.086,36.98,161.395,34.59,161.395z M34.5,152.599c-2.278,0-2.278,2.571-2.278,3.519c0,0.632,0,3.247,2.368,3.247
		c2.323,0,2.323-2.706,2.323-3.54C36.913,155.103,36.913,152.599,34.5,152.599z"/>
	<path d="M49.791,153.05h-3.744v2.278c0,1.623,0,1.984,0.09,2.525c0.181,1.037,1.128,1.128,1.466,1.128
		c0.88,0,1.489-0.271,2.188-0.609v2.368c-0.587,0.226-1.579,0.654-3.045,0.654c-1.309,0-2.616-0.496-3.383-1.557
		c-0.496-0.699-0.632-1.466-0.632-3.021v-3.767h-1.488v-0.608l4.353-4.917h0.451v3.271h3.744V153.05z"/>
	<path d="M55.159,161.191h-3.293v-15.381h3.293V161.191z"/>
	<path d="M61.382,147.367c0,1.015-0.812,1.804-1.781,1.804c-0.992,0-1.805-0.789-1.805-1.804c0-1.016,0.835-1.782,1.805-1.782
		S61.382,146.352,61.382,147.367z M61.089,161.191h-3.135v-10.396h3.135V161.191z"/>
	<path d="M67.292,152.283c0.88-1.015,1.872-1.691,3.383-1.691c1.917,0,2.955,1.105,3.406,2.029c0.383,0.768,0.405,1.512,0.405,2.436
		v6.135h-3.292v-5.863c0-0.654,0-1.105-0.158-1.489c-0.226-0.631-0.812-0.97-1.466-0.97c-1.309,0-2.143,1.398-2.278,1.624v6.698
		h-3.27v-10.396h3.27V152.283z"/>
	<path d="M87.386,160.019c-1.917,1.354-3.992,1.376-4.736,1.376c-4.601,0-5.932-3.157-5.932-5.391c0-3.337,2.594-5.412,5.503-5.412
		c2.165,0,5.413,1.285,5.346,5.932h-7.465c0.135,1.894,1.42,2.841,3.45,2.841c1.872,0,2.819-0.698,3.834-1.443V160.019z
		 M84.68,154.809c-0.091-0.924-0.699-2.232-2.256-2.232c-1.601,0-2.188,1.331-2.255,2.232H84.68z"/>
</g>
<g enable-background="new    ">
	<path d="M96.793,145.924h4.172l4.691,5.728l4.713-5.728h4.172v15.268h-4.601v-8.841l-4.149,5.12h-0.361l-4.172-5.12v8.841h-4.465
		V145.924z"/>
	<path d="M121.916,149.982v11.209h-3.969v-11.209H121.916z M121.602,147.39c0,0.924-0.745,1.669-1.67,1.669
		c-0.924,0-1.668-0.745-1.668-1.669c0-0.925,0.744-1.669,1.668-1.669C120.856,145.721,121.602,146.465,121.602,147.39z"/>
	<path d="M124.555,151.313c1.49-1.06,3.361-1.533,5.277-1.533c3.338,0,4.895,1.397,4.895,3.54v4.33c0,0.79,0.113,1.218,0.541,1.218
		c0.383,0,0.812-0.226,1.016-0.315v2.075c-0.789,0.315-1.826,0.767-3.383,0.767c-1.512,0-1.781-0.789-1.918-1.195
		c-0.607,0.496-1.533,1.195-3.473,1.195c-2.639,0-3.338-1.602-3.338-2.819c0-2.188,1.826-2.954,4.262-3.721
		c1.715-0.542,1.895-0.587,2.324-0.812c0-0.834-0.135-1.736-1.76-1.736c-1.916,0-3.451,1.06-4.443,2.053V151.313z M130.758,155.824
		c-1.557,0.653-2.707,1.127-2.707,2.277c0,0.812,0.564,1.15,1.082,1.15c0.633,0,1.332-0.541,1.625-0.767V155.824z"/>
	<path d="M157.82,161.191h-3.969v-5.977c0-1.602-0.52-2.368-1.625-2.368c-1.307,0-2.119,1.331-2.412,1.76v6.585h-3.969v-5.977
		c0-1.398-0.34-2.368-1.646-2.368c-1.264,0-1.918,1.15-2.391,1.76v6.585h-3.971v-11.209h3.971v1.602
		c1.15-1.218,2.299-1.804,3.945-1.804c1.443,0,2.955,0.519,3.676,2.188c1.195-1.354,2.459-2.188,4.354-2.188
		c2.752,0,4.037,1.691,4.037,4.578V161.191z"/>
	<path d="M164.34,149.982v11.209h-3.971v-11.209H164.34z M164.023,147.39c0,0.924-0.744,1.669-1.67,1.669
		c-0.924,0-1.668-0.745-1.668-1.669c0-0.925,0.744-1.669,1.668-1.669C163.279,145.721,164.023,146.465,164.023,147.39z"/>
</g>
</svg>
