<?xml version="1.0" encoding="utf-8"?>
<!-- Generator: Adobe Illustrator 16.0.0, SVG Export Plug-In . SVG Version: 6.00 Build 0)  -->
<!DOCTYPE svg PUBLIC "-//W3C//DTD SVG 1.1//EN" "http://www.w3.org/Graphics/SVG/1.1/DTD/svg11.dtd">
<svg version="1.1" xmlns="http://www.w3.org/2000/svg" xmlns:xlink="http://www.w3.org/1999/xlink" x="0px" y="0px" width="174.5px"
	 height="174.5px" viewBox="0 0 174.5 174.5" enable-background="new 0 0 174.5 174.5" xml:space="preserve">
<g id="Layer_2">
	<rect x="181.9" y="-289.75" fill="#0080FF" stroke="#000000" stroke-miterlimit="10" width="255" height="204"/>
</g>
<g id="Layer_1">
	<g id="SVfYhh_2_">
		
			<image overflow="visible" width="161" height="299" id="SVfYhh_3_" xlink:href="BA34DE07DA58E0A2.jpg"  transform="matrix(0.313 0 0 0.313 33.6533 18.7075)">
		</image>
	</g>
	<g>
		<path fill="none" d="M-292.197,70.037c1.042,0.521,2.083,0.868,3.034,1.116l0.319-0.398c-0.565-0.194-1.144-0.428-1.724-0.718
			c-3.688-1.845-5.8-4.967-6.314-9.288h-1.629C-297.996,65.07-295.885,68.191-292.197,70.037z"/>
		<path fill="none" d="M-295.264,56.436h17.875l0.019-0.023h-0.013l4.37-5.46h0.011l4.386-5.483h-13.654
			C-283.525,45.478-294.003,45.87-295.264,56.436z"/>
		<polygon fill="none" points="-278.052,66.208 -273.685,60.749 -275.312,60.749 -279.681,66.208 -279.684,66.208 -280.921,67.756 
			-280.838,67.756 -284.009,71.72 -282.379,71.72 -279.209,67.756 -279.292,67.756 -278.055,66.208 		"/>
		<polygon fill="none" points="-249.886,41.157 -228.886,14.907 -235.394,14.907 -256.393,41.157 		"/>
		<polygon fill="none" points="-265.851,50.953 -265.832,50.953 -261.464,45.493 -261.482,45.493 -261.464,45.47 -263.094,45.47 
			-263.111,45.493 -263.094,45.493 -267.46,50.953 -267.479,50.953 -271.867,56.436 -270.237,56.436 		"/>
		<polygon fill="none" points="-237.016,14.907 -238.645,14.907 -259.644,41.157 -258.015,41.157 		"/>
		<polygon fill="none" points="-259.86,45.493 -259.843,45.493 -264.209,50.953 -264.229,50.953 -268.616,56.436 -262.208,56.436 
			-262.108,56.436 -253.335,45.47 -259.843,45.47 		"/>
		<path fill="none" d="M-288.945,70.037c0.166,0.083,0.331,0.151,0.496,0.225l7.611-9.513h-14.421
			C-294.745,65.07-292.634,68.191-288.945,70.037z"/>
		<path fill="none" d="M-214.017,45.493h0.019l-4.367,5.46h-0.021l-4.386,5.483h6.604h7.051c1.258-0.009,11.746-0.394,13.002-10.967
			h-17.883L-214.017,45.493z"/>
		<polygon fill="none" points="-268.812,71.72 -267.184,71.72 -258.407,60.749 -259.939,60.749 -260.037,60.749 		"/>
		<polygon fill="none" points="-219.988,50.953 -215.621,45.493 -215.639,45.493 -215.621,45.47 -217.25,45.47 -217.268,45.493 
			-217.25,45.493 -221.617,50.953 -221.637,50.953 -226.023,56.436 -225.926,56.436 -224.395,56.436 -220.008,50.953 		"/>
		<polygon fill="none" points="-238.15,71.72 -236.621,71.72 -227.844,60.749 -229.377,60.749 -229.473,60.749 -238.25,71.72 		"/>
		<polygon fill="none" points="-265.562,71.72 -259.054,71.72 -250.276,60.749 -256.786,60.749 		"/>
		<polygon fill="none" points="-241.6,76.032 -241.701,76.032 -250.474,86.999 -248.845,86.999 -240.072,76.032 		"/>
		<polygon fill="none" points="-234.996,60.749 -241.424,60.749 -245.791,66.208 -245.873,66.208 -247.109,67.756 -247.037,67.756 
			-250.205,71.72 -243.771,71.72 		"/>
		<polygon fill="none" points="-248.731,67.756 -247.494,66.208 -247.414,66.208 -243.047,60.749 -244.674,60.749 -244.676,60.749 
			-249.043,66.208 -249.123,66.208 -250.36,67.756 -250.287,67.756 -253.457,71.72 -251.828,71.72 -248.658,67.756 		"/>
		<path fill="none" d="M-224.397,76.032h-7.444h-6.607l-8.772,10.967h35.825C-212.709,76.163-223.893,76.032-224.397,76.032z"/>
		<polygon fill="none" points="-269.012,76.032 -277.786,86.999 -271.277,86.999 -262.503,76.032 		"/>
		<path fill="none" d="M-283.892,45.47h-1.629c-1.256,0.009-11.734,0.4-12.994,10.967h1.629
			C-295.625,45.87-285.147,45.478-283.892,45.47z"/>
		<path fill="none" d="M-294.125,73.894c-3.525-1.764-7.594-5.315-8.566-12.189c-3.696,1.328-7.982,4.516-7.982,12.171
			c0,8.517,5.417,11.501,9.294,12.55l9.327-11.66C-292.731,74.519-293.424,74.244-294.125,73.894z"/>
		<path fill="none" d="M-312.294,73.875c0-8.767,5.623-11.676,9.54-12.642c-0.013-0.105-0.031-0.205-0.042-0.312
			c-3.739,0.552-11.126,2.905-11.126,12.954c0,11.003,9.052,12.782,12.13,13.068l0.164-0.204
			C-305.437,86.041-312.294,83.455-312.294,73.875z"/>
		<polygon fill="none" points="-272.263,76.032 -281.037,86.999 -279.408,86.999 -270.634,76.032 		"/>
		<polygon fill="none" points="-265.66,60.749 -272.062,60.749 -276.43,66.208 -276.433,66.208 -277.67,67.756 -277.587,67.756 
			-280.757,71.72 -274.335,71.72 -265.56,60.749 		"/>
		<path d="M-190.584,41.157h-1.621c1.189,0,2.156,0.965,2.156,2.156c0,8.996-4.805,13.285-8.834,15.3
			c-4.224,2.11-8.42,2.136-8.604,2.136h1.621l0,0c0.186,0,4.382-0.025,8.605-2.136c4.029-2.015,8.832-6.304,8.832-15.3
			C-188.428,42.122-189.393,41.157-190.584,41.157z"/>
		<path d="M-221.146,71.72h-1.622c6.03,0,17.438,3.646,17.438,17.436c0,1.191-0.967,2.156-2.156,2.156h1.621
			c1.191,0,2.156-0.965,2.156-2.156C-203.709,75.365-215.117,71.72-221.146,71.72z"/>
		<path d="M-224.397,71.72h-3.993h-6.607l8.775-10.972h6.604h10.502c0.002,0,0.002,0,0.002,0c0.185,0,4.381-0.025,8.604-2.136
			c4.029-2.015,8.833-6.304,8.833-15.3c0-1.191-0.966-2.156-2.155-2.156h-16.715l21.646-27.057c0.744-0.931,0.594-2.286-0.338-3.032
			c-0.629-0.505-1.455-0.588-2.156-0.303c0.188,0.076,0.369,0.17,0.535,0.303c0.931,0.746,1.08,2.102,0.337,3.032l-21.646,27.057
			h-1.629l21.646-27.057c0.743-0.931,0.594-2.286-0.337-3.032c-0.928-0.743-2.285-0.592-3.03,0.337l-23.804,29.752h-5.075
			c-1.19,0-2.156,0.965-2.156,2.156s0.966,2.156,2.156,2.156h1.628l-8.773,10.967h-6.508l0.02-0.023h0.062l4.367-5.46h-0.062
			l29.481-36.853c0.744-0.931,0.595-2.286-0.337-3.032c-0.631-0.505-1.457-0.588-2.157-0.303c0.188,0.076,0.37,0.17,0.535,0.303
			c0.931,0.746,1.081,2.102,0.337,3.032l-29.482,36.853h0.064l-4.369,5.46h-0.062l-0.02,0.023h-1.547h-0.082l0.02-0.023h0.062
			l4.369-5.46h-0.064l29.482-36.853c0.744-0.931,0.594-2.286-0.337-3.032c-0.929-0.743-2.287-0.592-3.03,0.337l-36.025,45.031
			h-6.507l33.871-42.338c0.518-0.648,0.619-1.535,0.26-2.282c-0.358-0.746-1.114-1.222-1.942-1.222h-1.622
			c0.829,0,1.585,0.476,1.943,1.222c0.358,0.747,0.258,1.634-0.26,2.282l-33.872,42.338h-1.531h-0.098l33.872-42.338
			c0.518-0.648,0.618-1.535,0.26-2.282c-0.358-0.746-1.114-1.222-1.943-1.222h-15.282c-0.655,0-1.274,0.297-1.685,0.809
			l-23.801,29.754h-20.354c-5.722,0-16.263,3.3-17.329,15.416c-6.243,0.743-15.387,4.944-15.387,17.303
			c0,13.79,11.405,17.437,17.435,17.437c0.655,0,1.275-0.297,1.684-0.811l8.331-10.413h0.011l3.365-4.205
			c0.666,0.084,1.192,0.119,1.521,0.135l-3.257,4.07h-0.012l-8.33,10.413c-0.322,0.404-0.776,0.666-1.273,0.764
			c0.422,0.031,0.828,0.047,1.211,0.047c0.655,0,1.275-0.297,1.684-0.811l8.33-10.413h0.012l3.247-4.058h0.386h1.622h4.483
			l-9.42,11.775c-0.518,0.648-0.619,1.535-0.26,2.281c0.359,0.746,1.115,1.223,1.943,1.223h15.283c0.655,0,1.274-0.297,1.683-0.809
			l8.33-10.414h0.003l3.245-4.058h1.629l-3.245,4.058h-0.003l-8.33,10.414c-0.409,0.512-1.028,0.809-1.683,0.809h1.622
			c0.655,0,1.274-0.297,1.683-0.809l8.33-10.414h0.003l3.245-4.058h6.506l-9.421,11.776c-0.518,0.646-0.619,1.533-0.26,2.281
			c0.359,0.746,1.115,1.223,1.943,1.223h45.843c1.19,0,2.156-0.965,2.156-2.156C-206.959,75.365-218.367,71.72-224.397,71.72z
			 M-225.926,56.436h-0.098l4.387-5.483h0.02l4.367-5.46h-0.018l0.018-0.023h1.629l-0.018,0.023h0.018l-4.366,5.46h-0.021
			l-4.387,5.483H-225.926z M-196.115,45.47c-1.256,10.573-11.744,10.958-13.002,10.967h-7.051h-6.604l4.386-5.483h0.021l4.367-5.46
			h-0.019l0.019-0.023L-196.115,45.47L-196.115,45.47z M-229.473,60.749h0.096h1.533l-8.777,10.972h-1.528h-0.101L-229.473,60.749z
			 M-250.276,60.749l-8.776,10.972h-6.508l8.776-10.972H-250.276z M-258.407,60.749l-8.777,10.972h-1.629l8.776-10.972h0.096
			H-258.407z M-262.108,56.436h-0.099h-6.407l4.387-5.483h0.019l4.367-5.46h-0.019l0.018-0.023h6.507L-262.108,56.436z
			 M-279.209,67.756l-3.17,3.964h-1.629l3.17-3.964h-0.083l1.238-1.548h0.003l4.367-5.46h1.629l-4.367,5.46h-0.003l-1.238,1.548
			H-279.209z M-288.45,70.262c-0.166-0.073-0.33-0.142-0.496-0.225c-3.688-1.845-5.799-4.967-6.314-9.288h14.421L-288.45,70.262z
			 M-290.567,70.037c0.581,0.29,1.159,0.521,1.724,0.718l-0.319,0.398c-0.951-0.248-1.992-0.597-3.034-1.116
			c-3.688-1.845-5.799-4.967-6.314-9.288h1.629C-296.368,65.07-294.255,68.191-290.567,70.037z M-267.479,50.953h0.019l4.367-5.46
			h-0.018l0.018-0.023h1.629l-0.018,0.023h0.018l-4.367,5.46h-0.019l-4.387,5.483h-1.629L-267.479,50.953z M-228.886,14.907
			l-21,26.25h-6.507l20.999-26.25H-228.886z M-238.645,14.907h1.629l-20.999,26.25h-1.629L-238.645,14.907z M-268.617,45.47
			l-4.386,5.483h-0.011l-4.37,5.46h0.013l-0.019,0.023h-17.874c1.26-10.566,11.738-10.958,12.994-10.967L-268.617,45.47
			L-268.617,45.47z M-285.521,45.47h1.629c-1.256,0.009-11.734,0.4-12.994,10.967h-1.629
			C-297.254,45.87-286.776,45.478-285.521,45.47z M-301.793,86.944c-3.079-0.286-12.13-2.065-12.13-13.068
			c0-10.049,7.388-12.402,11.126-12.954c0.011,0.107,0.03,0.207,0.042,0.312c-3.917,0.966-9.54,3.875-9.54,12.642
			c0,9.579,6.858,12.165,10.665,12.864L-301.793,86.944z M-301.378,86.425c-3.878-1.049-9.294-4.033-9.294-12.55
			c0-7.655,4.286-10.843,7.982-12.171c0.972,6.874,5.041,10.427,8.566,12.189c0.701,0.35,1.394,0.625,2.074,0.869L-301.378,86.425z
			 M-280.757,71.72l3.17-3.964h-0.083l1.238-1.548h0.003l4.367-5.46h6.403h0.1l-8.777,10.972H-280.757z M-281.037,86.999
			l8.773-10.967h1.629l-8.773,10.967H-281.037z M-271.277,86.999h-6.508l8.773-10.967h6.508L-271.277,86.999z M-253.457,71.72
			l3.169-3.964h-0.073l1.237-1.548h0.08l4.367-5.46h0.002h1.627l-4.367,5.46h-0.08l-1.237,1.548h0.073l-3.168,3.964H-253.457z
			 M-250.205,71.72l3.168-3.964h-0.072l1.236-1.548h0.08l4.369-5.46h6.428l-8.775,10.972H-250.205z M-250.474,86.999l8.772-10.967
			h0.102h1.527l-8.772,10.967H-250.474z M-247.223,86.999l8.773-10.967h6.606h7.444c0.505,0,11.688,0.131,13,10.967H-247.223z"/>
	</g>
	<g>
		<path d="M-264.579,143.312c-0.261-0.689-0.506-1.367-0.736-2.035c-0.23-0.666-0.468-1.346-0.713-2.035h-7.222l-1.449,4.07h-2.323
			c0.613-1.687,1.188-3.246,1.725-4.681c0.536-1.435,1.062-2.794,1.575-4.082c0.513-1.288,1.023-2.519,1.53-3.69
			c0.506-1.174,1.035-2.336,1.587-3.485h2.047c0.552,1.149,1.081,2.312,1.587,3.485c0.506,1.172,1.016,2.402,1.53,3.69
			c0.513,1.288,1.039,2.647,1.575,4.082c0.536,1.435,1.112,2.994,1.725,4.681H-264.579z M-266.672,137.402
			c-0.491-1.334-0.978-2.625-1.46-3.875c-0.483-1.25-0.986-2.451-1.507-3.601c-0.537,1.149-1.046,2.351-1.529,3.601
			s-0.962,2.541-1.438,3.875H-266.672z"/>
		<path d="M-257.678,143.543c-1.319-0.031-2.254-0.314-2.806-0.852c-0.552-0.537-0.828-1.373-0.828-2.508v-14.353l2.139-0.367
			v14.375c0,0.353,0.03,0.644,0.092,0.874c0.061,0.229,0.161,0.414,0.299,0.552c0.138,0.138,0.322,0.241,0.552,0.312
			c0.23,0.067,0.514,0.125,0.851,0.172L-257.678,143.543z"/>
		<path d="M-254.137,131.354h4.531v1.793h-4.531v5.521c0,0.599,0.046,1.093,0.138,1.483c0.092,0.392,0.23,0.697,0.414,0.92
			s0.414,0.379,0.69,0.472c0.276,0.093,0.598,0.139,0.966,0.139c0.644,0,1.162-0.073,1.553-0.219s0.663-0.249,0.816-0.312
			l0.414,1.771c-0.215,0.107-0.59,0.241-1.127,0.402c-0.537,0.16-1.15,0.24-1.84,0.24c-0.813,0-1.484-0.104-2.013-0.311
			c-0.529-0.207-0.955-0.518-1.276-0.932c-0.322-0.414-0.548-0.924-0.679-1.529c-0.13-0.605-0.195-1.307-0.195-2.104v-10.673
			l2.139-0.368V131.354z"/>
		<path d="M-243.811,143.312v-15.938h10.074v2.462h-7.176v4.07h6.371v2.461h-6.371v6.945H-243.811z"/>
		<path d="M-221.823,137.285c0,0.951-0.138,1.818-0.414,2.601s-0.667,1.449-1.173,2.001c-0.506,0.553-1.116,0.98-1.829,1.288
			s-1.499,0.46-2.357,0.46c-0.859,0-1.641-0.152-2.346-0.46s-1.311-0.735-1.817-1.288c-0.506-0.552-0.901-1.219-1.185-2.001
			s-0.425-1.647-0.425-2.601c0-0.949,0.142-1.812,0.425-2.586c0.283-0.775,0.682-1.438,1.196-1.989
			c0.514-0.554,1.123-0.978,1.829-1.277c0.705-0.299,1.479-0.448,2.323-0.448c0.844,0,1.622,0.149,2.334,0.448
			c0.713,0.3,1.323,0.726,1.829,1.277c0.506,0.552,0.9,1.215,1.185,1.989C-221.965,135.474-221.823,136.336-221.823,137.285z
			 M-224.675,137.285c0-1.194-0.257-2.143-0.771-2.84s-1.23-1.047-2.15-1.047s-1.637,0.35-2.15,1.047
			c-0.514,0.697-0.771,1.646-0.771,2.84c0,1.213,0.256,2.171,0.771,2.875c0.514,0.707,1.23,1.06,2.15,1.06s1.637-0.353,2.15-1.06
			C-224.932,139.456-224.675,138.498-224.675,137.285z"/>
		<path d="M-210.23,142.943c-0.537,0.139-1.235,0.28-2.094,0.427c-0.858,0.146-1.802,0.219-2.828,0.219
			c-0.967,0-1.775-0.14-2.427-0.414c-0.651-0.276-1.173-0.659-1.563-1.149s-0.672-1.078-0.84-1.761
			c-0.168-0.682-0.252-1.43-0.252-2.241v-6.74h2.783v6.304c0,1.287,0.188,2.208,0.562,2.76s1.031,0.828,1.966,0.828
			c0.337,0,0.694-0.017,1.069-0.046c0.375-0.031,0.656-0.069,0.84-0.115v-9.729h2.783V142.943z"/>
		<path d="M-207.839,131.675c0.537-0.153,1.233-0.299,2.093-0.438c0.859-0.138,1.809-0.207,2.852-0.207
			c0.981,0,1.803,0.136,2.462,0.402c0.659,0.27,1.185,0.645,1.575,1.127c0.392,0.483,0.668,1.066,0.828,1.748
			c0.162,0.684,0.241,1.432,0.241,2.243v6.763h-2.782v-6.326c0-0.644-0.043-1.19-0.127-1.645c-0.084-0.452-0.223-0.82-0.414-1.104
			c-0.191-0.284-0.453-0.491-0.781-0.621c-0.329-0.131-0.732-0.195-1.209-0.195c-0.353,0-0.721,0.021-1.104,0.068
			c-0.383,0.045-0.667,0.084-0.851,0.115v9.705h-2.783V131.675z"/>
		<path d="M-185.369,142.943c-0.552,0.17-1.246,0.322-2.082,0.461s-1.713,0.207-2.633,0.207c-0.951,0-1.802-0.146-2.553-0.438
			s-1.393-0.709-1.92-1.254c-0.529-0.544-0.936-1.203-1.219-1.979c-0.283-0.774-0.426-1.645-0.426-2.61
			c0-0.95,0.119-1.812,0.356-2.587s0.586-1.438,1.046-1.989c0.46-0.553,1.02-0.978,1.68-1.276c0.658-0.3,1.418-0.449,2.276-0.449
			c0.583,0,1.096,0.069,1.541,0.207c0.444,0.14,0.828,0.293,1.149,0.461v-5.772l2.783-0.46V142.943z M-193.35,137.264
			c0,1.227,0.291,2.188,0.873,2.887c0.584,0.697,1.389,1.047,2.416,1.047c0.443,0,0.824-0.02,1.138-0.059
			c0.313-0.038,0.571-0.08,0.771-0.126v-6.899c-0.244-0.168-0.57-0.325-0.978-0.473c-0.405-0.146-0.839-0.218-1.299-0.218
			c-1.013,0-1.752,0.345-2.22,1.034C-193.115,135.148-193.35,136.083-193.35,137.264z"/>
		<path d="M-176.123,133.79c-0.23-0.076-0.548-0.156-0.955-0.241c-0.406-0.084-0.878-0.126-1.414-0.126
			c-0.308,0-0.633,0.03-0.979,0.092s-0.586,0.115-0.725,0.161v9.637h-2.783v-11.453c0.537-0.199,1.209-0.388,2.014-0.563
			c0.805-0.177,1.698-0.265,2.68-0.265c0.184,0,0.397,0.012,0.643,0.035c0.246,0.021,0.492,0.053,0.736,0.092
			c0.246,0.037,0.483,0.084,0.713,0.138c0.23,0.054,0.414,0.104,0.553,0.149L-176.123,133.79z"/>
		<path d="M-164.623,131.283c-1.24,4.568-2.679,8.709-4.316,12.42c-0.307,0.689-0.621,1.279-0.943,1.771
			c-0.323,0.49-0.684,0.896-1.083,1.22c-0.399,0.322-0.845,0.556-1.335,0.7c-0.492,0.146-1.059,0.22-1.704,0.22
			c-0.431,0-0.856-0.047-1.278-0.139s-0.74-0.191-0.955-0.299l0.506-2.23c0.555,0.215,1.102,0.321,1.641,0.321
			c0.725,0,1.29-0.173,1.697-0.518c0.408-0.345,0.767-0.878,1.074-1.599c-0.877-1.688-1.721-3.526-2.528-5.521
			s-1.529-4.108-2.16-6.349h2.967c0.154,0.645,0.343,1.342,0.565,2.094c0.224,0.751,0.467,1.514,0.728,2.288
			c0.263,0.774,0.539,1.545,0.831,2.312c0.292,0.768,0.585,1.479,0.877,2.139c0.489-1.363,0.946-2.816,1.374-4.357
			c0.427-1.541,0.815-3.032,1.167-4.475h2.877V131.283z"/>
	</g>
	<text transform="matrix(1 0 0 1 4 143.3125)"><tspan x="0" y="0" font-family="'GillSansMTPro-Bold'" font-size="24">Hotline</tspan><tspan x="84.623" y="0" font-family="'GillSansMTPro-Book'" font-size="24"> </tspan><tspan x="90.623" y="0" font-family="'GillSansMTPro-Heavy'" font-size="24">Miami</tspan></text>
	<g id="SVfYhh_1_">
		
			<image overflow="visible" width="161" height="299" id="SVfYhh" xlink:href="BA34DE07DA58E0A6.jpg"  transform="matrix(0.3764 0 0 0.3764 96.9531 4.4824)">
		</image>
	</g>
</g>
</svg>
