<?xml version="1.0" encoding="utf-8"?>
<!-- Generator: Adobe Illustrator 16.0.0, SVG Export Plug-In . SVG Version: 6.00 Build 0)  -->
<!DOCTYPE svg PUBLIC "-//W3C//DTD SVG 1.1//EN" "http://www.w3.org/Graphics/SVG/1.1/DTD/svg11.dtd">
<svg version="1.1" id="Layer_1" xmlns="http://www.w3.org/2000/svg" xmlns:xlink="http://www.w3.org/1999/xlink" x="0px" y="0px"
	 width="56.69px" height="56.69px" viewBox="0 0 56.69 56.69" enable-background="new 0 0 56.69 56.69" xml:space="preserve">
<g>
	<path d="M3.889,31.341c-0.059,0-0.119-0.007-0.178-0.023c-0.379-0.103-0.607-0.504-0.509-0.899
		c1.209-4.871,14.696-9.272,16.23-9.758c0.374-0.119,0.77,0.102,0.884,0.492c0.114,0.39-0.098,0.802-0.472,0.921
		c-3.957,1.254-14.414,5.263-15.271,8.716C4.492,31.12,4.204,31.341,3.889,31.341z"/>
</g>
<g>
	<g>
		<path d="M4.875,35.386c-0.854,0-1.851-0.577-1.851-2.207v-6.428c-0.041-0.292-0.115-1.228,0.438-1.925
			c0.258-0.325,0.749-0.712,1.623-0.712l13.549,0.008c0.647,0.099,1.871,0.784,1.871,2.667v6.476l-0.02,0.085
			c-0.171,0.749-0.775,2.02-1.954,2.02H5.141C5.077,35.378,4.985,35.386,4.875,35.386z M5.085,25.59
			c-0.259,0-0.438,0.06-0.531,0.176c-0.167,0.212-0.15,0.651-0.125,0.787l0.012,0.139v6.487c0,0.731,0.271,0.731,0.433,0.731
			c0.039,0,0.068-0.002,0.081-0.005l0.13-0.013h13.447c0.223,0,0.466-0.498,0.556-0.811v-6.293c0-0.915-0.44-1.143-0.632-1.199
			H5.085z"/>
	</g>
	<g>
		<path d="M27.41,35.501c-0.854,0-1.851-0.578-1.851-2.208v-6.428c-0.04-0.292-0.116-1.227,0.438-1.924
			c0.257-0.325,0.749-0.712,1.624-0.712l13.549,0.008c0.646,0.099,1.871,0.783,1.871,2.667v6.476l-0.02,0.085
			c-0.172,0.75-0.775,2.02-1.955,2.02h-13.39C27.613,35.492,27.52,35.501,27.41,35.501z M27.621,25.705
			c-0.26,0-0.438,0.059-0.531,0.177c-0.167,0.211-0.151,0.65-0.125,0.786l0.012,0.139v6.487c0,0.731,0.271,0.731,0.434,0.731
			c0.039,0,0.068-0.003,0.08-0.005l0.131-0.012h13.445c0.226,0,0.463-0.488,0.557-0.814v-6.29c0-0.96-0.486-1.161-0.624-1.199
			H27.621z"/>
	</g>
	<g>
		<path d="M20.096,30.534l-0.598-1.339c0.152-0.072,3.752-1.777,7.069,0.015l-0.653,1.311C23.208,29.06,20.126,30.521,20.096,30.534
			z"/>
	</g>
</g>
<g>
	<path d="M42.369,30.532c-0.061,0-0.122-0.008-0.183-0.025c-0.378-0.105-0.603-0.509-0.503-0.902
		c0.971-3.788,10.939-7.361,12.073-7.756c0.371-0.13,0.771,0.08,0.896,0.466c0.124,0.387-0.075,0.805-0.448,0.934
		c-4.002,1.395-10.567,4.458-11.151,6.735C42.97,30.313,42.683,30.532,42.369,30.532z"/>
</g>
</svg>
