<?xml version="1.0" encoding="utf-8"?>
<!-- Generator: Adobe Illustrator 16.0.0, SVG Export Plug-In . SVG Version: 6.00 Build 0)  -->
<!DOCTYPE svg PUBLIC "-//W3C//DTD SVG 1.1//EN" "http://www.w3.org/Graphics/SVG/1.1/DTD/svg11.dtd">
<svg version="1.1" id="Layer_1" xmlns="http://www.w3.org/2000/svg" xmlns:xlink="http://www.w3.org/1999/xlink" x="0px" y="0px"
	 width="174.5px" height="174.5px" viewBox="0 0 174.5 174.5" enable-background="new 0 0 174.5 174.5" xml:space="preserve">
<polygon points="55.402,92.283 55.402,87.533 54.517,87.533 54.517,92.283 54.138,92.283 54.138,92.607 55.799,92.607 
	55.799,92.283 "/>
<polygon points="58.183,92.283 58.183,87.533 57.298,87.533 57.298,92.283 56.919,92.283 56.919,92.607 58.58,92.607 58.58,92.283 
	"/>
<polygon points="60.964,92.283 60.964,87.533 60.079,87.533 60.079,92.283 59.699,92.283 59.699,92.607 61.361,92.607 
	61.361,92.283 "/>
<polygon points="63.745,92.283 63.745,87.533 62.86,87.533 62.86,92.283 62.48,92.283 62.48,92.607 64.142,92.607 64.142,92.283 "/>
<path d="M60.7,30.122c-0.015-0.216-0.31-0.181-0.31-0.181h-1.2h-0.1h-1.2c0,0-0.294-0.036-0.31,0.181c-0.016,0.216,0,0.867,0,0.867
	h0.707v9.354h1.869v-9.354H60.7C60.7,30.989,60.715,30.338,60.7,30.122z"/>
<polygon points="120.141,83.533 120.141,88.282 121.025,88.282 121.025,83.533 121.404,83.533 121.404,83.208 119.744,83.208 
	119.744,83.533 "/>
<polygon points="117.359,83.533 117.359,88.282 118.245,88.282 118.245,83.533 118.625,83.533 118.625,83.208 116.963,83.208 
	116.963,83.533 "/>
<polygon points="114.579,83.533 114.579,88.282 115.463,88.282 115.463,83.533 115.843,83.533 115.843,83.208 114.182,83.208 
	114.182,83.533 "/>
<polygon points="111.798,83.533 111.798,88.282 112.684,88.282 112.684,83.533 113.062,83.533 113.062,83.208 111.4,83.208 
	111.4,83.533 "/>
<path d="M114.843,145.695c0.017,0.217,0.31,0.181,0.31,0.181h1.201h0.101h1.2c0,0,0.295,0.036,0.309-0.181
	c0.018-0.217,0-0.868,0-0.868h-0.706v-9.354h-1.87v9.354h-0.543C114.843,144.827,114.827,145.479,114.843,145.695z"/>
<path d="M87.882,7.244c-0.436-0.043-20.986-1.647-20.977,25.031v52.856h-0.01v54.59c0,26.68,20.54,25.074,20.976,25.03
	c0.436,0.044,20.986,1.865,20.977-25.03V86.865h0.012v-54.59C108.859,5.813,88.318,7.201,87.882,7.244z M83.847,133.055
	c-0.255,0-0.461-0.207-0.461-0.462s0.206-0.461,0.461-0.461c0.254,0,0.461,0.206,0.461,0.461S84.102,133.055,83.847,133.055z
	 M83.847,120.754c-0.255,0-0.461-0.206-0.461-0.461c0-0.254,0.206-0.461,0.461-0.461c0.254,0,0.461,0.207,0.461,0.461
	C84.308,120.548,84.102,120.754,83.847,120.754z M83.847,55.415c-0.255,0-0.461-0.207-0.461-0.461c0-0.255,0.206-0.461,0.461-0.461
	c0.254,0,0.461,0.206,0.461,0.461C84.308,55.208,84.102,55.415,83.847,55.415z M83.847,43.116c-0.255,0-0.461-0.207-0.461-0.461
	c0-0.255,0.206-0.461,0.461-0.461c0.254,0,0.461,0.207,0.461,0.461C84.308,42.91,84.102,43.116,83.847,43.116z M92.285,133.053
	c-0.254,0-0.46-0.205-0.46-0.46c0-0.254,0.206-0.46,0.46-0.46s0.46,0.206,0.46,0.46C92.745,132.848,92.539,133.053,92.285,133.053z
	 M92.285,120.753c-0.254,0-0.46-0.206-0.46-0.46s0.206-0.46,0.46-0.46s0.46,0.206,0.46,0.46S92.539,120.753,92.285,120.753z
	 M92.285,55.414c-0.254,0-0.46-0.206-0.46-0.46s0.206-0.46,0.46-0.46s0.46,0.206,0.46,0.46S92.539,55.414,92.285,55.414z
	 M92.285,43.115c-0.254,0-0.46-0.206-0.46-0.46c0-0.254,0.206-0.46,0.46-0.46s0.46,0.206,0.46,0.46
	C92.745,42.909,92.539,43.115,92.285,43.115z"/>
<path d="M48.909,17.245c-3.052,0-5.526,2.474-5.526,5.526s2.474,5.526,5.526,5.526c3.052,0,5.526-2.474,5.526-5.526
	S51.961,17.245,48.909,17.245z M48.909,24.381c-0.889,0-1.61-0.721-1.61-1.61s0.721-1.61,1.61-1.61s1.61,0.721,1.61,1.61
	S49.798,24.381,48.909,24.381z"/>
<path d="M48.909,28.894c-3.052,0-5.526,2.474-5.526,5.526s2.474,5.526,5.526,5.526c3.052,0,5.526-2.474,5.526-5.526
	S51.961,28.894,48.909,28.894z M48.909,36.03c-0.889,0-1.61-0.721-1.61-1.61s0.721-1.61,1.61-1.61s1.61,0.721,1.61,1.61
	S49.798,36.03,48.909,36.03z"/>
<path d="M53.686,59.775c-2.329-0.867-3.033-7.855-3.033-7.855l-0.109-2.384H49.55v-7.098h-1.444v6.99h-0.92
	c0,0-1.734,10.402-2.384,12.354c0,0-1.517,0.325-1.408,1.192c-0.108,0.867,1.408,1.192,1.408,1.192
	c0.65,1.951,2.384,12.353,2.384,12.353h0.92v6.989h1.444V76.41h0.994l0.109-2.384c0,0,0.704-6.989,3.033-7.855
	c2.33-0.867,2.005-3.197,2.005-3.197S56.016,60.642,53.686,59.775z M52.494,64.326c-0.988,0-1.788-0.606-1.788-1.354
	c0-0.748,0.8-1.354,1.788-1.354c0.987,0,1.788,0.606,1.788,1.354C54.282,63.72,53.481,64.326,52.494,64.326z"/>
<path d="M63.835,41.174h-4.551H59.14h-4.551c0,0-0.704-0.036-0.704,0.705v6.754v0.704v6.754c0,0.74,0.704,0.704,0.704,0.704h4.551
	h0.145h4.551c0,0,0.704,0.036,0.704-0.704v-6.754v-0.704v-6.754C64.54,41.138,63.835,41.174,63.835,41.174z M54.959,55.414
	c-0.254,0-0.46-0.206-0.46-0.46s0.206-0.46,0.46-0.46s0.46,0.206,0.46,0.46S55.213,55.414,54.959,55.414z M54.959,45.039
	c-0.254,0-0.46-0.206-0.46-0.46s0.206-0.46,0.46-0.46s0.46,0.206,0.46,0.46S55.213,45.039,54.959,45.039z M54.959,43.115
	c-0.254,0-0.46-0.206-0.46-0.46c0-0.254,0.206-0.46,0.46-0.46s0.46,0.206,0.46,0.46C55.419,42.909,55.213,43.115,54.959,43.115z
	 M59.14,53.933c-0.573,0-1.038-0.465-1.038-1.038s0.465-1.038,1.038-1.038s1.038,0.465,1.038,1.038S59.713,53.933,59.14,53.933z
	 M63.396,55.414c-0.254,0-0.46-0.206-0.46-0.46s0.206-0.46,0.46-0.46s0.46,0.206,0.46,0.46S63.65,55.414,63.396,55.414z
	 M63.396,45.039c-0.254,0-0.46-0.206-0.46-0.46s0.206-0.46,0.46-0.46s0.46,0.206,0.46,0.46S63.65,45.039,63.396,45.039z
	 M63.396,43.115c-0.254,0-0.46-0.206-0.46-0.46c0-0.254,0.206-0.46,0.46-0.46s0.46,0.206,0.46,0.46
	C63.856,42.909,63.65,43.115,63.396,43.115z"/>
<path d="M59.212,57.392c-1.466,0-2.655,1.188-2.655,2.655s1.188,2.655,2.655,2.655s2.655-1.189,2.655-2.655
	S60.678,57.392,59.212,57.392z M59.213,61.04c-0.548,0-0.993-0.445-0.993-0.993s0.444-0.993,0.993-0.993s0.993,0.444,0.993,0.993
	S59.761,61.04,59.213,61.04z"/>
<path d="M59.212,63.371c-1.466,0-2.655,1.188-2.655,2.655s1.188,2.655,2.655,2.655s2.655-1.189,2.655-2.655
	S60.678,63.371,59.212,63.371z M59.213,67.019c-0.548,0-0.993-0.445-0.993-0.993s0.444-0.993,0.993-0.993s0.993,0.444,0.993,0.993
	S59.761,67.019,59.213,67.019z"/>
<path d="M59.212,69.262c-1.466,0-2.655,1.188-2.655,2.655s1.188,2.655,2.655,2.655s2.655-1.189,2.655-2.655
	S60.678,69.262,59.212,69.262z M59.213,72.91c-0.548,0-0.993-0.445-0.993-0.993s0.444-0.993,0.993-0.993s0.993,0.445,0.993,0.993
	S59.761,72.91,59.213,72.91z"/>
<path d="M59.212,75.337c-1.134,0-2.054,0.919-2.054,2.054c0,1.134,0.919,2.054,2.054,2.054s2.054-0.92,2.054-2.054
	C61.267,76.256,60.347,75.337,59.212,75.337z M59.212,78.444c-0.582,0-1.054-0.472-1.054-1.054s0.472-1.054,1.054-1.054
	s1.054,0.472,1.054,1.054S59.794,78.444,59.212,78.444z"/>
<path d="M51.37,96.175h-1.48l-0.741,1.282l0.741,1.284h1.48l0.74-1.284L51.37,96.175z M50.63,98.145
	c-0.379,0-0.687-0.309-0.687-0.688s0.308-0.688,0.687-0.688s0.687,0.309,0.687,0.688S51.009,98.145,50.63,98.145z"/>
<path d="M51.37,99.336h-1.48l-0.741,1.283l0.741,1.281h1.48l0.74-1.281L51.37,99.336z M50.63,101.307
	c-0.379,0-0.687-0.309-0.687-0.688s0.308-0.688,0.687-0.688s0.687,0.309,0.687,0.688S51.009,101.307,50.63,101.307z"/>
<path d="M55.585,84.854h-1.089l-0.544,0.944l0.544,0.944h1.089l0.544-0.944L55.585,84.854z M55.041,86.313
	c-0.285,0-0.515-0.23-0.515-0.515c0-0.284,0.23-0.515,0.515-0.515c0.284,0,0.515,0.23,0.515,0.515
	C55.556,86.083,55.325,86.313,55.041,86.313z"/>
<path d="M58.366,84.854h-1.09l-0.543,0.944l0.543,0.944h1.09l0.545-0.944L58.366,84.854z M57.822,86.313
	c-0.284,0-0.515-0.23-0.515-0.515c0-0.284,0.23-0.515,0.515-0.515c0.285,0,0.515,0.23,0.515,0.515
	C58.337,86.083,58.106,86.313,57.822,86.313z"/>
<path d="M61.147,84.854h-1.088l-0.546,0.944l0.546,0.944h1.088l0.545-0.944L61.147,84.854z M60.603,86.313
	c-0.285,0-0.515-0.23-0.515-0.515c0-0.284,0.23-0.515,0.515-0.515c0.284,0,0.515,0.23,0.515,0.515
	C61.118,86.083,60.887,86.313,60.603,86.313z"/>
<path d="M60.183,80.271h-1.798l-0.899,1.559l0.899,1.557h1.798l0.9-1.557L60.183,80.271z M59.284,82.737
	c-0.524,0-0.948-0.424-0.948-0.948s0.424-0.948,0.948-0.948c0.523,0,0.948,0.425,0.948,0.948S59.808,82.737,59.284,82.737z"/>
<path d="M63.928,84.854h-1.089l-0.544,0.944l0.544,0.944h1.089l0.545-0.944L63.928,84.854z M63.384,86.313
	c-0.284,0-0.515-0.23-0.515-0.515c0-0.284,0.23-0.515,0.515-0.515c0.285,0,0.515,0.23,0.515,0.515
	C63.899,86.083,63.668,86.313,63.384,86.313z"/>
<path d="M56.08,94.368c-1.197,0-2.167,0.97-2.167,2.167s0.97,2.167,2.167,2.167s2.167-0.97,2.167-2.167S57.277,94.368,56.08,94.368z
	 M56.08,97.482c-0.523,0-0.948-0.424-0.948-0.947s0.425-0.948,0.948-0.948s0.948,0.425,0.948,0.948S56.604,97.482,56.08,97.482z"/>
<path d="M61.08,94.368c-1.197,0-2.167,0.97-2.167,2.167s0.97,2.167,2.167,2.167s2.167-0.97,2.167-2.167S62.277,94.368,61.08,94.368z
	 M61.08,97.482c-0.523,0-0.948-0.424-0.948-0.947s0.425-0.948,0.948-0.948s0.948,0.425,0.948,0.948S61.604,97.482,61.08,97.482z"/>
<path d="M56.08,99.374c-1.197,0-2.167,0.97-2.167,2.167s0.97,2.167,2.167,2.167s2.167-0.97,2.167-2.167S57.277,99.374,56.08,99.374z
	 M56.08,102.489c-0.523,0-0.948-0.425-0.948-0.948s0.425-0.948,0.948-0.948s0.948,0.425,0.948,0.948S56.604,102.489,56.08,102.489z"
	/>
<path d="M61.08,99.374c-1.197,0-2.167,0.97-2.167,2.167s0.97,2.167,2.167,2.167s2.167-0.97,2.167-2.167S62.277,99.374,61.08,99.374z
	 M61.08,102.489c-0.523,0-0.948-0.425-0.948-0.948s0.425-0.948,0.948-0.948s0.948,0.425,0.948,0.948S61.604,102.489,61.08,102.489z"
	/>
<path d="M126.633,147.518c-3.053,0-5.527,2.475-5.527,5.526c0,3.053,2.475,5.526,5.527,5.526s5.527-2.474,5.527-5.526
	C132.16,149.992,129.686,147.518,126.633,147.518z M126.634,154.654c-0.89,0-1.61-0.721-1.61-1.61s0.721-1.61,1.61-1.61
	s1.61,0.721,1.61,1.61S127.523,154.654,126.634,154.654z"/>
<path d="M126.633,135.869c-3.053,0-5.527,2.475-5.527,5.527c0,3.052,2.475,5.526,5.527,5.526s5.527-2.475,5.527-5.526
	C132.16,138.344,129.686,135.869,126.633,135.869z M126.634,143.006c-0.89,0-1.61-0.721-1.61-1.609c0-0.89,0.721-1.61,1.61-1.61
	s1.61,0.721,1.61,1.61C128.244,142.285,127.523,143.006,126.634,143.006z"/>
<path d="M130.741,111.652c-0.65-1.949-2.384-12.352-2.384-12.352h-0.922v-6.988h-1.442v7.098h-0.995l-0.107,2.384
	c0,0-0.703,6.988-3.033,7.854c-2.332,0.867-2.006,3.197-2.006,3.197s-0.326,2.327,2.006,3.196c2.33,0.866,3.033,7.854,3.033,7.854
	l0.107,2.385h0.995v7.097h1.442v-6.987h0.922c0,0,1.732-10.404,2.384-12.354c0,0,1.516-0.324,1.407-1.19
	C132.256,111.979,130.741,111.652,130.741,111.652z M123.049,114.198c-0.987,0-1.787-0.606-1.787-1.354s0.8-1.354,1.787-1.354
	c0.988,0,1.788,0.605,1.788,1.354S124.037,114.198,123.049,114.198z"/>
<path d="M120.955,119.021h-4.551h-0.146h-4.551c0,0-0.704-0.037-0.704,0.703v6.756v0.703v6.754c0,0.74,0.704,0.703,0.704,0.703
	h4.551h0.146h4.551c0,0,0.704,0.037,0.704-0.703v-6.754v-0.703v-6.756C121.659,118.984,120.955,119.021,120.955,119.021z
	 M112.146,133.621c-0.254,0-0.461-0.206-0.461-0.46s0.207-0.46,0.461-0.46s0.459,0.206,0.459,0.46S112.4,133.621,112.146,133.621z
	 M112.146,131.698c-0.254,0-0.461-0.206-0.461-0.46s0.207-0.461,0.461-0.461s0.459,0.207,0.459,0.461S112.4,131.698,112.146,131.698
	z M112.146,121.322c-0.254,0-0.461-0.206-0.461-0.461c0-0.254,0.207-0.459,0.461-0.459s0.459,0.205,0.459,0.459
	C112.605,121.116,112.4,121.322,112.146,121.322z M116.402,123.96c-0.573,0-1.039-0.466-1.039-1.039s0.466-1.039,1.039-1.039
	c0.574,0,1.039,0.466,1.039,1.039S116.977,123.96,116.402,123.96z M120.584,133.622c-0.254,0-0.461-0.206-0.461-0.461
	s0.207-0.461,0.461-0.461s0.461,0.206,0.461,0.461S120.838,133.622,120.584,133.622z M120.584,131.699
	c-0.254,0-0.461-0.207-0.461-0.461c0-0.255,0.207-0.461,0.461-0.461s0.461,0.206,0.461,0.461
	C121.045,131.492,120.838,131.699,120.584,131.699z M120.584,121.323c-0.254,0-0.461-0.206-0.461-0.462
	c0-0.254,0.207-0.461,0.461-0.461s0.461,0.207,0.461,0.461C121.045,121.117,120.838,121.323,120.584,121.323z"/>
<path d="M116.331,113.114c-1.466,0-2.655,1.188-2.655,2.655c0,1.466,1.189,2.654,2.655,2.654s2.655-1.188,2.655-2.654
	C118.986,114.303,117.797,113.114,116.331,113.114z M116.331,116.764c-0.549,0-0.994-0.445-0.994-0.994s0.445-0.994,0.994-0.994
	s0.994,0.445,0.994,0.994S116.88,116.764,116.331,116.764z"/>
<path d="M116.331,107.135c-1.466,0-2.655,1.189-2.655,2.655s1.189,2.655,2.655,2.655s2.655-1.189,2.655-2.655
	S117.797,107.135,116.331,107.135z M116.331,110.784c-0.549,0-0.994-0.445-0.994-0.994s0.445-0.994,0.994-0.994
	s0.994,0.445,0.994,0.994S116.88,110.784,116.331,110.784z"/>
<path d="M116.331,101.244c-1.466,0-2.655,1.188-2.655,2.654c0,1.467,1.189,2.656,2.655,2.656s2.655-1.189,2.655-2.656
	C118.986,102.433,117.797,101.244,116.331,101.244z M116.331,104.893c-0.549,0-0.994-0.444-0.994-0.994
	c0-0.549,0.445-0.993,0.994-0.993s0.994,0.444,0.994,0.993C117.325,104.448,116.88,104.893,116.331,104.893z"/>
<path d="M116.331,96.318c-1.134,0-2.054,0.92-2.054,2.055s0.92,2.054,2.054,2.054s2.054-0.919,2.054-2.054
	S117.465,96.318,116.331,96.318z M116.331,99.533c-0.582,0-1.054-0.473-1.054-1.055s0.472-1.054,1.054-1.054
	s1.054,0.472,1.054,1.054S116.913,99.533,116.331,99.533z"/>
<path d="M125.652,77.076h-1.479l-0.739,1.283l0.739,1.282h1.479l0.742-1.282L125.652,77.076z M124.913,79.046
	c-0.38,0-0.687-0.308-0.687-0.687s0.307-0.687,0.687-0.687s0.687,0.308,0.687,0.687S125.293,79.046,124.913,79.046z"/>
<path d="M125.652,73.916h-1.479l-0.739,1.282l0.739,1.282h1.479l0.742-1.282L125.652,73.916z M124.913,75.885
	c-0.38,0-0.687-0.308-0.687-0.687c0-0.38,0.307-0.688,0.687-0.688s0.687,0.308,0.687,0.688
	C125.6,75.577,125.293,75.885,124.913,75.885z"/>
<path d="M121.047,89.076h-1.089l-0.544,0.943l0.544,0.943h1.089l0.545-0.943L121.047,89.076z M120.503,90.535
	c-0.284,0-0.515-0.23-0.515-0.516c0-0.284,0.23-0.515,0.515-0.515s0.515,0.23,0.515,0.515
	C121.018,90.305,120.787,90.535,120.503,90.535z"/>
<path d="M118.266,89.076h-1.088l-0.546,0.943l0.546,0.943h1.088l0.545-0.943L118.266,89.076z M117.721,90.535
	c-0.284,0-0.515-0.23-0.515-0.516c0-0.284,0.23-0.515,0.515-0.515c0.285,0,0.516,0.23,0.516,0.515
	C118.236,90.305,118.006,90.535,117.721,90.535z"/>
<path d="M115.484,89.076h-1.088l-0.545,0.943l0.545,0.943h1.088l0.545-0.943L115.484,89.076z M114.939,90.535
	c-0.283,0-0.515-0.23-0.515-0.516c0-0.284,0.231-0.515,0.515-0.515c0.285,0,0.516,0.23,0.516,0.515
	C115.455,90.305,115.225,90.535,114.939,90.535z"/>
<path d="M117.157,92.43h-1.798l-0.898,1.559l0.898,1.557h1.798l0.901-1.557L117.157,92.43z M116.258,94.975
	c-0.523,0-0.947-0.424-0.947-0.947s0.424-0.948,0.947-0.948s0.948,0.425,0.948,0.948S116.781,94.975,116.258,94.975z"/>
<path d="M112.703,89.076h-1.09l-0.545,0.943l0.545,0.943h1.09l0.544-0.943L112.703,89.076z M112.158,90.535
	c-0.285,0-0.516-0.23-0.516-0.516c0-0.284,0.23-0.515,0.516-0.515c0.284,0,0.515,0.23,0.515,0.515
	C112.673,90.305,112.442,90.535,112.158,90.535z"/>
<path d="M119.463,77.114c-1.197,0-2.168,0.97-2.168,2.168c0,1.197,0.971,2.168,2.168,2.168s2.168-0.971,2.168-2.168
	C121.631,78.084,120.66,77.114,119.463,77.114z M119.463,80.23c-0.523,0-0.947-0.424-0.947-0.948c0-0.524,0.424-0.948,0.947-0.948
	s0.948,0.424,0.948,0.948C120.411,79.806,119.986,80.23,119.463,80.23z"/>
<path d="M114.463,77.115c-1.197,0-2.167,0.97-2.167,2.167c0,1.197,0.97,2.167,2.167,2.167s2.167-0.97,2.167-2.167
	C116.63,78.085,115.66,77.115,114.463,77.115z M114.463,80.231c-0.523,0-0.949-0.425-0.949-0.949c0-0.524,0.426-0.949,0.949-0.949
	c0.524,0,0.949,0.425,0.949,0.949C115.412,79.806,114.987,80.231,114.463,80.231z"/>
<path d="M119.463,72.107c-1.197,0-2.168,0.971-2.168,2.168s0.971,2.168,2.168,2.168s2.168-0.971,2.168-2.168
	S120.66,72.107,119.463,72.107z M119.463,75.223c-0.523,0-0.947-0.424-0.947-0.948c0-0.523,0.424-0.948,0.947-0.948
	s0.948,0.424,0.948,0.948C120.411,74.799,119.986,75.223,119.463,75.223z"/>
<path d="M114.463,72.108c-1.197,0-2.167,0.97-2.167,2.167s0.97,2.167,2.167,2.167s2.167-0.97,2.167-2.167
	S115.66,72.108,114.463,72.108z M114.463,75.224c-0.523,0-0.949-0.425-0.949-0.949c0-0.524,0.426-0.949,0.949-0.949
	c0.524,0,0.949,0.425,0.949,0.949C115.412,74.799,114.987,75.224,114.463,75.224z"/>
</svg>
