<?xml version="1.0" encoding="utf-8"?>
<!-- Generator: Adobe Illustrator 16.0.0, SVG Export Plug-In . SVG Version: 6.00 Build 0)  -->
<!DOCTYPE svg PUBLIC "-//W3C//DTD SVG 1.1//EN" "http://www.w3.org/Graphics/SVG/1.1/DTD/svg11.dtd">
<svg version="1.1" id="Layer_1" xmlns="http://www.w3.org/2000/svg" xmlns:xlink="http://www.w3.org/1999/xlink" x="0px" y="0px"
	 width="174.5px" height="174.5px" viewBox="0 0 174.5 174.5" enable-background="new 0 0 174.5 174.5" xml:space="preserve">
<path d="M108.859,32.275c0-26.462-20.54-25.074-20.977-25.031c-0.436-0.043-20.986-1.647-20.977,25.031v52.856h-0.01v54.59
	c0,26.679,20.54,25.074,20.976,25.03c0.436,0.044,20.987,1.865,20.977-25.03V86.865h0.011V32.275z"/>
<g>
	<circle fill="#FFFFFF" cx="83.847" cy="54.954" r="0.461"/>
	<circle fill="#FFFFFF" cx="83.847" cy="42.655" r="0.461"/>
	<circle fill="#FFFFFF" cx="92.285" cy="54.954" r="0.46"/>
	<circle fill="#FFFFFF" cx="92.285" cy="42.655" r="0.46"/>
</g>
<g>
	<circle fill="#FFFFFF" cx="83.847" cy="132.593" r="0.461"/>
	<circle fill="#FFFFFF" cx="83.847" cy="120.293" r="0.461"/>
	<circle fill="#FFFFFF" cx="92.285" cy="132.593" r="0.46"/>
	<circle fill="#FFFFFF" cx="92.285" cy="120.293" r="0.46"/>
</g>
<circle cx="48.909" cy="22.771" r="5.526"/>
<circle cx="48.909" cy="34.42" r="5.526"/>
<path d="M53.686,59.775c-2.329-0.867-3.033-7.855-3.033-7.855l-0.109-2.384h-0.994v-7.098h-1.444v6.99h-0.92
	c0,0-1.734,10.402-2.384,12.353c0,0-1.517,0.325-1.408,1.192c-0.108,0.867,1.408,1.192,1.408,1.192
	c0.65,1.951,2.384,12.353,2.384,12.353h0.92v6.989h1.444v-7.097h0.994l0.109-2.384c0,0,0.704-6.989,3.033-7.855
	c2.33-0.867,2.005-3.197,2.005-3.197S56.016,60.642,53.686,59.775z"/>
<path d="M63.835,41.174h-4.551H59.14h-4.551c0,0-0.704-0.036-0.704,0.705v6.754v0.704v6.754c0,0.74,0.704,0.704,0.704,0.704h4.551
	h0.145h4.551c0,0,0.704,0.036,0.704-0.704v-6.754v-0.704v-6.754C64.54,41.138,63.835,41.174,63.835,41.174z"/>
<polygon points="55.402,92.283 55.402,87.533 54.517,87.533 54.517,92.283 54.138,92.283 54.138,92.607 55.799,92.607 
	55.799,92.283 "/>
<polygon points="58.183,92.283 58.183,87.533 57.298,87.533 57.298,92.283 56.919,92.283 56.919,92.607 58.58,92.607 58.58,92.283 
	"/>
<polygon points="60.964,92.283 60.964,87.533 60.079,87.533 60.079,92.283 59.699,92.283 59.699,92.607 61.361,92.607 
	61.361,92.283 "/>
<polygon points="63.745,92.283 63.745,87.533 62.86,87.533 62.86,92.283 62.48,92.283 62.48,92.607 64.142,92.607 64.142,92.283 "/>
<path d="M60.7,30.122c-0.015-0.216-0.31-0.181-0.31-0.181H59.19h-0.1h-1.2c0,0-0.294-0.036-0.31,0.181c-0.016,0.216,0,0.867,0,0.867
	h0.707v9.354h1.869v-9.354H60.7C60.7,30.989,60.715,30.338,60.7,30.122z"/>
<circle cx="59.212" cy="60.047" r="2.655"/>
<circle cx="59.212" cy="66.026" r="2.655"/>
<circle cx="59.212" cy="71.917" r="2.655"/>
<circle cx="59.212" cy="77.443" r="2.054"/>
<polygon points="49.89,98.741 49.149,97.457 49.89,96.175 51.37,96.175 52.11,97.457 51.37,98.741 "/>
<polygon points="49.89,101.9 49.149,100.619 49.89,99.336 51.37,99.336 52.11,100.619 51.37,101.9 "/>
<polygon points="54.496,86.742 53.952,85.798 54.496,84.854 55.585,84.854 56.129,85.798 55.585,86.742 "/>
<polygon points="57.276,86.742 56.733,85.798 57.276,84.854 58.366,84.854 58.911,85.798 58.366,86.742 "/>
<polygon points="60.059,86.742 59.513,85.798 60.059,84.854 61.147,84.854 61.692,85.798 61.147,86.742 "/>
<polygon points="58.385,83.387 57.486,81.83 58.385,80.271 60.183,80.271 61.083,81.83 60.183,83.387 "/>
<polygon points="62.839,86.742 62.295,85.798 62.839,84.854 63.928,84.854 64.473,85.798 63.928,86.742 "/>
<circle cx="56.08" cy="96.535" r="2.167"/>
<circle cx="61.08" cy="96.535" r="2.167"/>
<circle cx="56.08" cy="101.541" r="2.167"/>
<circle cx="61.08" cy="101.541" r="2.167"/>
<circle cx="126.633" cy="153.044" r="5.527"/>
<circle cx="126.633" cy="141.396" r="5.527"/>
<path d="M121.857,116.042c2.33,0.866,3.033,7.855,3.033,7.855l0.108,2.384h0.995v7.097h1.443v-6.988h0.921
	c0,0,1.733-10.403,2.384-12.354c0,0,1.516-0.324,1.408-1.191c0.107-0.866-1.408-1.192-1.408-1.192
	c-0.65-1.95-2.384-12.352-2.384-12.352h-0.921v-6.989h-1.443v7.098h-0.995l-0.108,2.384c0,0-0.703,6.988-3.033,7.855
	c-2.331,0.866-2.005,3.196-2.005,3.196S119.526,115.173,121.857,116.042z"/>
<path d="M111.707,134.641h4.551h0.146h4.551c0,0,0.704,0.037,0.704-0.703v-6.755v-0.703v-6.755c0-0.74-0.704-0.704-0.704-0.704
	h-4.551h-0.146h-4.551c0,0-0.704-0.036-0.704,0.704v6.755v0.703v6.755C111.003,134.678,111.707,134.641,111.707,134.641z"/>
<polygon points="120.141,83.533 120.141,88.282 121.025,88.282 121.025,83.533 121.405,83.533 121.405,83.208 119.744,83.208 
	119.744,83.533 "/>
<polygon points="117.359,83.533 117.359,88.282 118.245,88.282 118.245,83.533 118.625,83.533 118.625,83.208 116.963,83.208 
	116.963,83.533 "/>
<polygon points="114.579,83.533 114.579,88.282 115.463,88.282 115.463,83.533 115.843,83.533 115.843,83.208 114.182,83.208 
	114.182,83.533 "/>
<polygon points="111.798,83.533 111.798,88.282 112.683,88.282 112.683,83.533 113.062,83.533 113.062,83.208 111.4,83.208 
	111.4,83.533 "/>
<path d="M114.843,145.695c0.016,0.217,0.31,0.181,0.31,0.181h1.2h0.101h1.2c0,0,0.295,0.036,0.309-0.181
	c0.017-0.217,0-0.868,0-0.868h-0.706v-9.354h-1.87v9.354h-0.543C114.843,144.827,114.827,145.479,114.843,145.695z"/>
<circle cx="116.331" cy="115.769" r="2.655"/>
<circle cx="116.331" cy="109.79" r="2.655"/>
<circle cx="116.331" cy="103.899" r="2.655"/>
<circle cx="116.331" cy="98.373" r="2.054"/>
<polygon points="125.653,77.076 126.394,78.359 125.653,79.641 124.173,79.641 123.433,78.359 124.173,77.076 "/>
<polygon points="125.653,73.916 126.394,75.198 125.653,76.48 124.173,76.48 123.433,75.198 124.173,73.916 "/>
<polygon points="121.047,89.076 121.592,90.02 121.047,90.963 119.958,90.963 119.414,90.02 119.958,89.076 "/>
<polygon points="118.266,89.076 118.81,90.02 118.266,90.963 117.177,90.963 116.632,90.02 117.177,89.076 "/>
<polygon points="115.484,89.076 116.029,90.02 115.484,90.963 114.396,90.963 113.852,90.02 114.396,89.076 "/>
<polygon points="117.157,92.43 118.058,93.988 117.157,95.545 115.359,95.545 114.461,93.988 115.359,92.43 "/>
<polygon points="112.703,89.076 113.247,90.02 112.703,90.963 111.614,90.963 111.069,90.02 111.614,89.076 "/>
<circle cx="119.463" cy="79.282" r="2.168"/>
<circle cx="114.463" cy="79.282" r="2.167"/>
<circle cx="119.463" cy="74.275" r="2.168"/>
<circle cx="114.463" cy="74.275" r="2.167"/>
<circle fill="#FFFFFF" cx="48.909" cy="22.771" r="1.61"/>
<circle fill="#FFFFFF" cx="48.909" cy="34.42" r="1.61"/>
<ellipse fill="#FFFFFF" cx="52.494" cy="62.972" rx="1.788" ry="1.354"/>
<circle fill="#FFFFFF" cx="59.14" cy="52.895" r="1.038"/>
<circle fill="#FFFFFF" cx="54.959" cy="44.579" r="0.46"/>
<circle fill="#FFFFFF" cx="54.959" cy="54.954" r="0.46"/>
<circle fill="#FFFFFF" cx="54.959" cy="42.655" r="0.46"/>
<circle fill="#FFFFFF" cx="63.396" cy="44.579" r="0.46"/>
<circle fill="#FFFFFF" cx="63.396" cy="54.954" r="0.46"/>
<circle fill="#FFFFFF" cx="63.396" cy="42.655" r="0.46"/>
<circle fill="#FFFFFF" cx="59.213" cy="60.047" r="0.993"/>
<circle fill="#FFFFFF" cx="59.213" cy="66.026" r="0.993"/>
<circle fill="#FFFFFF" cx="59.213" cy="71.917" r="0.993"/>
<circle fill="#FFFFFF" cx="59.213" cy="77.338" r="1.054"/>
<circle fill="#FFFFFF" cx="50.63" cy="97.457" r="0.687"/>
<circle fill="#FFFFFF" cx="50.63" cy="100.619" r="0.687"/>
<circle fill="#FFFFFF" cx="55.041" cy="85.798" r="0.515"/>
<circle fill="#FFFFFF" cx="57.822" cy="85.798" r="0.515"/>
<circle fill="#FFFFFF" cx="60.603" cy="85.798" r="0.515"/>
<circle fill="#FFFFFF" cx="59.284" cy="81.789" r="0.948"/>
<circle fill="#FFFFFF" cx="63.384" cy="85.798" r="0.515"/>
<circle fill="#FFFFFF" cx="56.08" cy="96.535" r="0.948"/>
<circle fill="#FFFFFF" cx="61.08" cy="96.535" r="0.948"/>
<circle fill="#FFFFFF" cx="56.08" cy="101.541" r="0.948"/>
<circle fill="#FFFFFF" cx="61.08" cy="101.541" r="0.948"/>
<circle fill="#FFFFFF" cx="126.634" cy="153.044" r="1.61"/>
<circle fill="#FFFFFF" cx="126.634" cy="141.396" r="1.61"/>
<ellipse fill="#FFFFFF" cx="123.049" cy="112.844" rx="1.788" ry="1.354"/>
<circle fill="#FFFFFF" cx="116.403" cy="122.921" r="1.039"/>
<circle fill="#FFFFFF" cx="120.584" cy="131.238" r="0.461"/>
<circle fill="#FFFFFF" cx="120.584" cy="120.862" r="0.461"/>
<circle fill="#FFFFFF" cx="120.584" cy="133.161" r="0.461"/>
<circle fill="#FFFFFF" cx="112.146" cy="131.238" r="0.46"/>
<circle fill="#FFFFFF" cx="112.146" cy="120.862" r="0.46"/>
<circle fill="#FFFFFF" cx="112.146" cy="133.161" r="0.46"/>
<circle fill="#FFFFFF" cx="116.331" cy="115.769" r="0.994"/>
<circle fill="#FFFFFF" cx="116.331" cy="109.79" r="0.994"/>
<circle fill="#FFFFFF" cx="116.331" cy="103.899" r="0.994"/>
<circle fill="#FFFFFF" cx="116.331" cy="98.479" r="1.054"/>
<circle fill="#FFFFFF" cx="124.913" cy="78.359" r="0.687"/>
<circle fill="#FFFFFF" cx="124.913" cy="75.198" r="0.687"/>
<circle fill="#FFFFFF" cx="120.503" cy="90.02" r="0.515"/>
<circle fill="#FFFFFF" cx="117.721" cy="90.02" r="0.515"/>
<circle fill="#FFFFFF" cx="114.94" cy="90.02" r="0.515"/>
<circle fill="#FFFFFF" cx="116.258" cy="94.027" r="0.948"/>
<circle fill="#FFFFFF" cx="112.158" cy="90.02" r="0.515"/>
<circle fill="#FFFFFF" cx="119.463" cy="79.282" r="0.948"/>
<circle fill="#FFFFFF" cx="114.463" cy="79.282" r="0.949"/>
<circle fill="#FFFFFF" cx="119.463" cy="74.275" r="0.948"/>
<circle fill="#FFFFFF" cx="114.463" cy="74.275" r="0.949"/>
</svg>
