				<svg version="1.1" id="logo" xmlns="http://www.w3.org/2000/svg" xmlns:xlink="http://www.w3.org/1999/xlink" x="0px" y="0px" width="30px" height="48px" viewBox="0 0 30 48" enable-background="new 0 0 30 48" xml:space="preserve">
					<g>
						<path fill="#4ea38d" d="M3.428,17.146l-0.047-0.09l0.003,0.178L3.428,17.146z M6.029,21.96L6.583,23h17.024l2.486-4.986H12.94 l0-0.006h-1.61L11.333,18H8.003l5.408-10.847l-2.546-4.877l-7.437,14.87l2.558,4.899L6.029,21.96z M10.86,2.268l0.005,0.009 l0.005-0.009H10.86z M2.309,29.42l0.382,0.054l-0.203-0.412L2.309,29.42z M14.672,5H17l3.488-0.027L18.002,0h-5.998l-0.035,0.07 l0,0.087l2.704,5.218V5z M11.243,16h3.175l1.6-0.03l4.48-8.962h-4.771L11.243,16z M2.32,19.361l-2.322,4.643l2.489,5.058 l2.392-4.797L2.32,19.361z M27.527,19.049l0.146,0.294l0.146-0.294H27.527z M27.674,19.343L16.782,41.189l2.368,4.535 L30.01,24.004L27.674,19.343z M19.029,45.967h0.247l-0.126-0.242L19.029,45.967z M14.633,41l7.974-15.992H6.752l-2.496,5.005 l5.505,0.02l5.292-0.014L9.499,41H14.633z M9.514,43.008L12.029,48l5.956,0.028v-0.199l-2.518-4.821H9.514z M2.205,19.142 l0.115,0.22l0.115-0.229L2.205,19.142z"/>
					</g>
				</svg>